<svg width="64" height="64" viewBox="0 0 64 64" fill="none" xmlns="http://www.w3.org/2000/svg">
  <rect width="64" height="64" rx="16" fill="#1A1A1A"/>
  <rect x="10" y="10" width="44" height="44" rx="12" fill="#4ADE80"/>
  <path d="M23 21C20.7909 21 19 22.7909 19 25V43C19 45.2091 20.7909 47 23 47H43C43.5523 47 44 46.5523 44 46V24C44 22.3431 42.6569 21 41 21H23Z" fill="#1A1A1A"/>
  <path d="M25 25H39V43H25C23.3431 43 22 41.6569 22 40V28C22 26.3431 23.3431 25 25 25Z" fill="#4ADE80"/>
  <path d="M39 25H41C41.5523 25 42 25.4477 42 26V44H39V25Z" fill="#4ADE80"/>
  <path d="M27 30H35" stroke="#1A1A1A" stroke-width="2.5" stroke-linecap="round"/>
  <path d="M27 35H35" stroke="#1A1A1A" stroke-width="2.5" stroke-linecap="round"/>
  <path d="M27 40H33" stroke="#1A1A1A" stroke-width="2.5" stroke-linecap="round"/>
</svg>
